<?xml version="1.0" encoding="UTF-8" standalone="no"?>
<!-- Created with Notepad -->
<!-- (PD) December 16, 2005 - _Crotalus horridus_  -->
<svg
   xmlns:dc="http://purl.org/dc/elements/1.1/"
   xmlns:cc="http://creativecommons.org/ns#"
   xmlns:rdf="http://www.w3.org/1999/02/22-rdf-syntax-ns#"
   xmlns:svg="http://www.w3.org/2000/svg"
   xmlns="http://www.w3.org/2000/svg"
   xmlns:xlink="http://www.w3.org/1999/xlink"
   xmlns:sodipodi="http://sodipodi.sourceforge.net/DTD/sodipodi-0.dtd"
   xmlns:inkscape="http://www.inkscape.org/namespaces/inkscape"
   version="1.0"
   width="275"
   height="175"
   id="Confederate Battle Flag"
   sodipodi:version="0.32"
   inkscape:version="0.46"
   sodipodi:docname="TerranConfederacy_SC1_Logo1.svg"
   sodipodi:docbase="C:\Dokumente und Einstellungen\Axel\Eigene Dateien\Inkscape-Dateien\Flaggen der Sezessionsstaaten"
   inkscape:output_extension="org.inkscape.output.svg.inkscape">
  <metadata
     id="metadata42">
    <rdf:RDF>
      <cc:Work
         rdf:about="">
        <dc:format>image/svg+xml</dc:format>
        <dc:type
           rdf:resource="http://purl.org/dc/dcmitype/StillImage" />
      </cc:Work>
    </rdf:RDF>
  </metadata>
  <sodipodi:namedview
     inkscape:window-height="714"
     inkscape:window-width="1016"
     inkscape:pageshadow="2"
     inkscape:pageopacity="0.0"
     borderopacity="1.0"
     bordercolor="#666666"
     pagecolor="#ffffff"
     id="base"
     inkscape:zoom="2"
     inkscape:cx="122.28013"
     inkscape:cy="122.82517"
     inkscape:window-x="0"
     inkscape:window-y="0"
     inkscape:current-layer="Confederate Battle Flag"
     showgrid="false"
     showguides="true"
     inkscape:guide-bbox="true" />
  <rect
     style="opacity:1;fill:#0039ad;fill-opacity:1;fill-rule:nonzero;stroke:#ffffff;stroke-width:0;stroke-linecap:butt;stroke-linejoin:miter;stroke-miterlimit:0;stroke-dasharray:none;stroke-opacity:0.94117647"
     id="rect3194"
     width="45"
     height="35"
     x="0"
     y="140.00002" />
  <rect
     style="opacity:1;fill:#0039ad;fill-opacity:1;fill-rule:nonzero;stroke:#ffffff;stroke-width:0;stroke-linecap:butt;stroke-linejoin:miter;stroke-miterlimit:0;stroke-dasharray:none;stroke-opacity:0.94117647"
     id="rect3196"
     width="45"
     height="35"
     x="0"
     y="0" />
  <rect
     style="opacity:1;fill:#0039ad;fill-opacity:1;fill-rule:nonzero;stroke:#ffffff;stroke-width:0;stroke-linecap:butt;stroke-linejoin:miter;stroke-miterlimit:0;stroke-dasharray:none;stroke-opacity:0.94117647"
     id="rect3198"
     width="45"
     height="35"
     x="230"
     y="0" />
  <rect
     style="opacity:1;fill:#0039ad;fill-opacity:1;fill-rule:nonzero;stroke:#ffffff;stroke-width:0;stroke-linecap:butt;stroke-linejoin:miter;stroke-miterlimit:0;stroke-dasharray:none;stroke-opacity:0.94117647"
     id="rect3200"
     width="45"
     height="35"
     x="230"
     y="140" />
  <rect
     style="fill:#0039ad;fill-opacity:1"
     x="22.5"
     y="15"
     width="230"
     height="145"
     id="Blue Saltire" />
  <path
     style="fill:#000000;stroke:#ffffff;stroke-width:5;stroke-linecap:butt;stroke-linejoin:miter;stroke-miterlimit:3.79999995000000013;stroke-dasharray:none;stroke-opacity:1;fill-opacity:0"
     d="M 20,177.5 L 255,177.5 L 137.5,107.5 L 20,177.5 z"
     id="White Saltire Border - Bottom" />
  <path
     style="fill:#000000;fill-opacity:0;stroke:#ffffff;stroke-width:5;stroke-miterlimit:2.9000001;stroke-dasharray:none;stroke-opacity:1"
     d="M -4.8,20 L -4.8,155 L 105.2,87.5 L -4.8,20 z"
     id="White Saltire Border - Left" />
  <path
     style="fill:#bc113d"
     d="M 62.5,162 L 212.5,162 L 137.5,116.65124 L 62.5,162 z"
     id="Red Field - Bottom" />
  <defs
     id="defs12">
    <inkscape:perspective
       sodipodi:type="inkscape:persp3d"
       inkscape:vp_x="0 : 87.5 : 1"
       inkscape:vp_y="0 : 1000 : 0"
       inkscape:vp_z="275 : 87.5 : 1"
       inkscape:persp3d-origin="137.5 : 58.333333 : 1"
       id="perspective29" />
    <path
       style="fill:#FFFFFF"
       d="M 10,0 L 12.33,7.66 L 20,7.66 L 13.83,12.33 L 16.16,20 L 10,15.33 L 3.83,20 L 6.16,12.33 L 0,7.66 L 7.66,7.66 z"
       id="Star" />
  </defs>
  <use
     x="127.5"
     y="77.5"
     xlink:href="#Star"
     id="use15" />
  <use
     x="90"
     y="54"
     xlink:href="#Star"
     id="use17"
     transform="translate(-20,-11.4)"
     width="275"
     height="175" />
  <use
     x="90"
     y="101"
     xlink:href="#Star"
     id="use19"
     transform="translate(-20,11.4)"
     width="275"
     height="175" />
  <use
     x="165"
     y="54"
     xlink:href="#Star"
     id="use21"
     transform="translate(20,-11.4)"
     width="275"
     height="175" />
  <use
     x="165"
     y="101"
     xlink:href="#Star"
     id="use23"
     transform="translate(20,11.4)"
     width="275"
     height="175" />
  <use
     x="13"
     y="8"
     xlink:href="#Star"
     id="use33"
     transform="translate(12,7.89)"
     width="275"
     height="175" />
  <use
     x="13"
     y="147"
     xlink:href="#Star"
     id="use35"
     transform="translate(12,-7.28)"
     width="275"
     height="175" />
  <use
     x="242"
     y="8"
     xlink:href="#Star"
     id="use37"
     transform="translate(-13,7.89)"
     width="275"
     height="175" />
  <use
     x="242"
     y="147"
     xlink:href="#Star"
     id="use39"
     transform="translate(-13,-7.28)"
     width="275"
     height="175" />
  <path
     style="fill:#000000;fill-opacity:0;stroke:#ffffff;stroke-width:5;stroke-linecap:butt;stroke-linejoin:miter;stroke-miterlimit:3.79999995;stroke-dasharray:none;stroke-opacity:1"
     d="M 20,-2.5000044 L 254.99999,-2.5000044 L 137.49999,67.5 L 20,-2.5000044 z"
     id="path3202" />
  <path
     style="fill:#000000;fill-opacity:0;stroke:#ffffff;stroke-width:5;stroke-miterlimit:2.9000001;stroke-dasharray:none;stroke-opacity:1"
     d="M 279.8,20.000001 L 279.8,155 L 169.8,87.500001 L 279.8,20.000001 z"
     id="path3208" />
  <path
     style="fill:#000000;fill-opacity:0;stroke:#bc113d;stroke-width:10;stroke-linecap:butt;stroke-linejoin:miter;stroke-miterlimit:3.79999995;stroke-dasharray:none;stroke-opacity:1"
     d="M 20,186.23 L 255,186.23 L 137.5,116.22999 L 20,186.23 z"
     id="path3210" />
  <path
     style="fill:#bc113d"
     d="M 62.500001,12.90024 L 212.5,12.90024 L 137.5,58.249 L 62.500001,12.90024 z"
     id="path3212" />
  <path
     style="fill:#bc113d"
     d="M 13,44.184995 L 13,134.185 L 85,89.184996 L 13,44.184995 z"
     id="Red Field - Left" />
  <path
     style="fill:#000000;fill-opacity:0;stroke:#bc113d;stroke-width:10;stroke-linecap:butt;stroke-linejoin:miter;stroke-miterlimit:3.79999995;stroke-dasharray:none;stroke-opacity:1"
     d="M 20,-11.230009 L 255,-11.230009 L 137.5,58.77 L 20,-11.230009 z"
     id="path3214" />
  <path
     style="fill:#000000;fill-opacity:0;stroke:#bc113d;stroke-width:10;stroke-miterlimit:3.79999995;stroke-dasharray:none;stroke-opacity:1"
     d="M -19.14,20.000001 L -19.14,155 L 90.86,87.500001 L -19.14,20.000001 z"
     id="path3216" />
  <path
     style="fill:#000000;fill-opacity:0;stroke:#bc113d;stroke-width:10;stroke-miterlimit:3.79999995;stroke-dasharray:none;stroke-opacity:1"
     d="M 294.14,19.999997 L 294.14,155 L 184.14,87.499997 L 294.14,19.999997 z"
     id="path3220" />
  <path
     style="fill:#bc113d"
     d="M 262,42.784991 L 262,132.785 L 190,87.784992 L 262,42.784991 z"
     id="path3218" />
</svg>
